<svg xmlns="http://www.w3.org/2000/svg" width="2500" height="1235" viewBox="0 0 2500 1235" version="1.1"><path d="M 333.500 256.518 C 281.250 290.253, 238.162 317.887, 237.750 317.927 C 237.338 317.967, 237 310.339, 237 300.976 L 237 283.951 230.750 287.924 L 224.500 291.897 224.227 309.485 L 223.954 327.074 219.281 330.037 C 216.711 331.667, 214.257 333, 213.828 333 C 213.399 333, 212.924 325.379, 212.774 316.064 L 212.500 299.129 197.282 308.314 L 182.063 317.500 182.032 335.731 L 182 353.962 171.954 360.481 C 166.429 364.066, 161.704 367, 161.454 367 C 161.204 367, 161 358.863, 161 348.917 C 161 338.971, 160.635 330.983, 160.189 331.167 C 159.743 331.350, 138.372 344.325, 112.698 360 L 66.017 388.500 66.009 435.725 L 66 482.949 83.250 471.839 C 92.738 465.728, 114.113 451.963, 130.750 441.250 L 161 421.771 161.028 406.135 L 161.056 390.500 170.901 384.250 C 176.316 380.813, 181.028 378, 181.373 378 C 181.718 378, 182 414.351, 182 458.780 L 182 539.561 134.700 567.030 L 87.401 594.500 119.568 594.763 L 151.735 595.027 277.334 522.037 L 402.934 449.047 528.516 522.037 L 654.098 595.028 686.250 594.764 L 718.402 594.500 561.451 503.315 C 475.128 453.163, 404.030 411.988, 403.455 411.815 C 402.880 411.642, 365.424 432.987, 320.218 459.250 C 275.012 485.512, 237.792 507, 237.507 507 C 237.222 507, 237.104 469.766, 237.244 424.257 L 237.500 341.514 315.500 291.287 C 358.400 263.663, 393.837 241.047, 394.250 241.030 C 394.663 241.014, 395 257.650, 395 278 L 395 315 390 315 L 385 315 385 323.950 L 385 332.900 390.750 333.200 L 396.500 333.500 396.798 338.615 C 397.082 343.503, 396.971 343.757, 394.298 344.327 C 386.484 345.990, 381.010 352.534, 381.004 360.215 C 381.001 364.109, 381.564 365.573, 384.241 368.622 C 393.898 379.620, 413.206 378.078, 419.595 365.800 C 421.962 361.251, 421.451 359.995, 417.250 360.039 C 414.142 360.070, 413.157 360.622, 411.498 363.260 C 408.958 367.298, 405.652 368.967, 400.150 368.985 C 396.526 368.998, 395.233 368.433, 392.400 365.600 C 388.641 361.841, 388.113 358.712, 390.631 355.117 C 392.568 352.352, 397.759 350, 401.927 350 L 404.919 350 405.210 341.750 L 405.500 333.500 411.250 333.200 L 417 332.900 417 323.950 L 417 315 412 315 L 407 315 407.006 273.750 L 407.013 232.500 419.138 224.685 L 431.263 216.870 430.640 211.685 C 430.298 208.833, 430.013 203.912, 430.009 200.750 C 430.004 197.588, 429.663 195.041, 429.250 195.091 C 428.837 195.141, 385.750 222.784, 333.500 256.518 M 217.750 354.130 L 213 357.237 213 439.225 C 213 509.745, 213.199 521.138, 214.424 520.668 C 215.207 520.367, 217.682 518.963, 219.924 517.548 L 224 514.975 224 432.987 C 224 387.894, 223.662 351.005, 223.250 351.012 C 222.838 351.018, 220.363 352.421, 217.750 354.130 M 99.500 410.309 L 84.500 419.559 84.224 434.779 C 84.072 443.151, 84.156 450, 84.410 450 C 84.665 450, 91.764 445.548, 100.186 440.107 L 115.500 430.214 115.777 415.607 C 115.929 407.573, 115.704 401.013, 115.277 401.030 C 114.850 401.046, 107.750 405.222, 99.500 410.309 M 444.550 411.931 C 445.072 412.443, 457.164 419.651, 471.421 427.947 L 497.342 443.032 523.890 442.766 L 550.439 442.500 523.337 426.750 L 496.235 411 469.917 411 C 453.656 411, 443.963 411.356, 444.550 411.931 M 130.536 463.210 L 100.573 482.500 130.438 482.765 C 146.864 482.911, 160.470 482.863, 160.674 482.660 C 160.877 482.456, 160.922 473.656, 160.772 463.104 L 160.500 443.919 130.536 463.210 M 531.083 462.409 C 531.313 462.633, 543.566 469.841, 558.314 478.425 L 585.127 494.032 611.647 493.766 L 638.166 493.500 611.084 477.750 L 584.001 462 557.334 462 C 542.667 462, 530.854 462.184, 531.083 462.409 M 363 526 L 363 544 379.500 544 L 396 544 396 526 L 396 508 379.500 508 L 363 508 363 526 M 410 526 L 410 544 426.500 544 L 443 544 443 526 L 443 508 426.500 508 L 410 508 410 526 M 619.550 513.848 C 620.072 514.315, 632.297 521.522, 646.715 529.865 L 672.931 545.033 699.472 544.766 L 726.012 544.500 698.862 528.750 L 671.713 513 645.156 513 C 630.541 513, 619.027 513.381, 619.550 513.848 M 363 576 L 363 594 379.500 594 L 396 594 396 576 L 396 558 379.500 558 L 363 558 363 576 M 410 576 L 410 594 426.500 594 L 443 594 443 576 L 443 558 426.500 558 L 410 558 410 576 M 705.550 563.841 C 706.072 564.303, 718.302 571.511, 732.727 579.857 L 758.954 595.033 785.502 594.766 L 812.049 594.500 784.926 578.750 L 757.802 563 731.201 563 C 716.571 563, 705.028 563.378, 705.550 563.841" stroke="none" fill="#fac21b" fill-rule="evenodd"/><path d="M 237.189 300.750 C 237.085 310.238, 237.338 318.001, 237.750 318.002 C 238.162 318.003, 238.382 312.716, 238.239 306.252 C 237.771 285.196, 237.382 283.157, 237.189 300.750 M 213.413 315.500 C 213.414 325.400, 213.564 329.315, 213.746 324.199 C 213.928 319.084, 213.927 310.984, 213.744 306.199 C 213.561 301.415, 213.412 305.600, 213.413 315.500 M 384.208 324.250 L 384 334 390.097 334 L 396.193 334 395.847 339.001 C 395.656 341.751, 395.861 344.001, 396.302 344.001 C 396.744 344, 396.969 341.637, 396.802 338.750 L 396.500 333.500 390.787 333.201 L 385.074 332.902 384.744 323.701 L 384.415 314.500 384.208 324.250 M 181.225 335.550 C 181.101 345.477, 180.662 354.031, 180.250 354.557 C 179.838 355.084, 180.073 355.034, 180.774 354.448 C 181.740 353.639, 181.976 349.047, 181.749 335.440 L 181.451 317.500 181.225 335.550 M 160.793 348.499 C 161.061 365.467, 161.635 369.018, 163.595 365.845 C 164.038 365.130, 163.870 364.962, 163.155 365.405 C 162.298 365.934, 162 361.455, 162 348.059 C 162 338.127, 161.662 329.999, 161.250 329.999 C 160.838 329.998, 160.632 338.323, 160.793 348.499 M 405.667 333.667 C 405.300 334.033, 405 337.831, 405 342.106 L 405 349.879 401.491 350.294 L 397.983 350.710 401.741 350.605 L 405.500 350.500 405.790 342.299 L 406.079 334.097 411.790 333.738 L 417.500 333.378 411.917 333.189 C 408.846 333.085, 406.033 333.300, 405.667 333.667 M 237.235 424.250 C 237.106 469.763, 237.338 507, 237.750 507 C 238.430 507, 238.422 448.038, 237.733 371 C 237.588 354.775, 237.364 378.737, 237.235 424.250 M 213.667 356.667 C 212.741 357.593, 212.824 521, 213.750 521 C 214.162 521, 214.500 483.875, 214.500 438.500 C 214.500 393.125, 214.463 356, 214.417 356 C 214.371 356, 214.033 356.300, 213.667 356.667 M 180.752 430.250 C 180.890 458.987, 181.122 495.550, 181.267 511.500 C 181.413 527.450, 181.637 503.938, 181.766 459.250 C 181.895 414.563, 181.662 378, 181.250 378 C 180.838 378, 180.613 401.512, 180.752 430.250 M 65.462 435.500 C 65.463 461.900, 65.592 472.556, 65.749 459.181 C 65.907 445.805, 65.907 424.205, 65.749 411.181 C 65.591 398.156, 65.462 409.100, 65.462 435.500 M 160.997 406.203 C 160.724 415.389, 160.849 422.555, 161.276 422.126 C 161.703 421.698, 161.927 414.182, 161.773 405.424 L 161.494 389.500 160.997 406.203 M 114.804 415.081 C 115.029 425.524, 114.770 429.597, 113.804 430.833 C 112.636 432.326, 112.683 432.357, 114.250 431.128 C 115.772 429.934, 116 427.881, 116 415.378 C 116 407.470, 115.662 400.999, 115.250 400.998 C 114.838 400.997, 114.637 407.335, 114.804 415.081 M 84.221 434.750 C 84.016 448.903, 84.561 452.138, 86.595 448.845 C 87.031 448.140, 86.870 447.962, 86.181 448.388 C 85.369 448.890, 84.968 444.950, 84.748 434.292 L 84.442 419.500 84.221 434.750 M 549.490 441.984 C 549.881 442.616, 540.541 443.068, 523.299 443.251 L 496.500 443.534 524.372 443.767 C 549.052 443.973, 552.102 443.828, 551 442.500 C 549.608 440.823, 548.549 440.461, 549.490 441.984 M 159.405 444.155 C 158.962 444.870, 159.130 445.038, 159.845 444.595 C 160.703 444.065, 161 448.911, 161 463.441 L 161 483 130.941 483 C 108.474 483, 101.062 482.708, 101.595 481.845 C 102.038 481.130, 101.870 480.962, 101.155 481.405 C 97.504 483.660, 101.918 484.012, 130.750 483.764 L 161.500 483.500 161.771 463.250 C 162.024 444.311, 161.570 440.650, 159.405 444.155 M 529.999 461.750 C 529.998 462.163, 537.986 462.384, 547.749 462.243 C 581.324 461.758, 584.445 461.418, 557.250 461.209 C 542.263 461.094, 529.999 461.337, 529.999 461.750 M 362.465 526.249 L 362.500 544.500 379.251 544.537 L 396.002 544.575 379.523 544.263 L 363.045 543.952 362.738 525.975 L 362.430 507.998 362.465 526.249 M 443.225 525.726 L 443 543.952 426.250 544.252 L 409.500 544.552 426.281 544.776 C 439.193 544.948, 443.176 544.704, 443.556 543.715 C 443.827 543.008, 443.914 534.571, 443.749 524.965 L 443.450 507.500 443.225 525.726 M 617.229 512.563 C 617.903 513.236, 671.188 513.145, 671.864 512.469 C 672.122 512.211, 659.808 512, 644.500 512 C 629.192 512, 616.920 512.253, 617.229 512.563 M 362.226 576.250 L 362 595 379.250 594.776 L 396.500 594.552 379.772 594.252 L 363.045 593.952 362.748 575.726 L 362.452 557.500 362.226 576.250 M 443 575.976 L 443 593.952 426.250 594.252 L 409.500 594.552 426.750 594.776 L 444 595 444 576.500 C 444 566.325, 443.775 558, 443.500 558 C 443.225 558, 443 566.089, 443 575.976 M 244.500 568.583 C 206.668 574.424, 178.281 593.271, 149.884 631.401 C 143.589 639.854, 142.580 643.809, 145.416 648.929 C 146.256 650.444, 156.498 657.122, 172.631 666.673 C 193.911 679.270, 199.183 681.988, 202.350 681.993 C 206.783 682.001, 208.529 680.436, 218.989 667.073 C 229.979 653.035, 242.285 643.809, 255.313 639.842 C 264.938 636.911, 278.134 637.506, 286.236 641.236 C 297.236 646.300, 305.565 657.218, 308.045 669.824 C 311.249 686.107, 305.275 702.279, 288.120 723.768 C 276.719 738.049, 271.755 743.327, 214.605 801.929 C 185.947 831.315, 158.787 859.321, 154.250 864.165 L 146 872.971 146 899.035 C 146 926.678, 146.432 929.555, 150.945 931.970 C 152.233 932.660, 192.481 933, 272.878 933 L 392.888 933 395.445 930.750 C 398.128 928.389, 422 874.489, 422 870.794 C 422 867.378, 420.064 865.112, 416.238 864.049 C 413.825 863.379, 388.515 863.009, 344.823 863.006 L 277.145 863 275.099 860.399 C 272.694 857.342, 271.516 852.099, 272.522 848.930 C 272.914 847.696, 286.305 833.144, 302.281 816.593 C 356.946 759.960, 372.644 739.777, 382.597 713.338 L 384.917 707.175 382.208 705.356 C 380.300 704.073, 377.096 703.428, 371.358 703.170 C 361.235 702.715, 357.653 704.218, 351.283 711.597 C 346.438 717.210, 341.242 720, 335.638 720 L 332.316 720 331.658 701.840 C 331.296 691.852, 331 680.377, 331 676.340 L 331 669 336.542 669 C 341.920 669, 342.300 669.188, 349.391 675.373 C 357.979 682.863, 361.773 684.352, 370.952 683.833 C 376.501 683.519, 378.392 682.938, 381.445 680.609 C 387.827 675.742, 389.208 672.589, 388.502 664.500 C 387.677 655.041, 384.632 642.413, 380.975 633.280 C 368.154 601.260, 333.447 575.320, 294.290 568.491 C 283.557 566.620, 256.899 566.669, 244.500 568.583 M 463.603 577.250 C 461.957 578.726, 455.455 592.521, 444.700 617.354 C 429.240 653.052, 428.352 655.444, 429.110 659.354 C 429.551 661.634, 429.932 668.312, 429.956 674.193 C 429.997 684.084, 430.167 685.003, 432.223 686.443 C 435.001 688.389, 440.370 688.415, 451.119 686.532 C 461.570 684.702, 469.865 681.889, 488.087 673.997 C 495.957 670.589, 503.456 667.397, 504.752 666.904 L 507.108 666.008 505.338 669.004 C 504.365 670.652, 503.198 672, 502.746 672 C 502.293 672, 495.977 677.752, 488.711 684.782 C 474.285 698.739, 466.232 704.913, 455.500 710.243 C 443.275 716.316, 439.801 717.045, 419.489 717.803 L 400.813 718.500 373.907 780.431 C 355.165 823.568, 347 843.453, 347 845.958 C 347 847.937, 347.734 850.603, 348.631 851.883 C 352.330 857.165, 348.545 857, 465.813 857 C 570.447 857, 574.755 857.072, 576.363 858.849 C 577.283 859.865, 584.593 875.953, 592.607 894.599 C 601.870 916.148, 608.077 929.320, 609.645 930.750 C 612.109 932.997, 612.156 933, 648.633 933 L 685.154 933 688.077 930.077 C 690.283 927.870, 691.002 926.216, 691.010 923.327 C 691.024 917.720, 545.989 581.668, 541.864 577.750 L 538.968 575 502.540 575 C 466.172 575, 466.107 575.004, 463.603 577.250 M 717.491 593.986 C 717.886 594.624, 706.705 595.070, 685.800 595.250 L 653.500 595.529 686.872 595.764 C 716.441 595.973, 720.103 595.829, 719 594.500 C 717.607 592.822, 716.549 592.461, 717.491 593.986 M 785.500 595 L 758.500 595.549 785.750 595.775 C 803.400 595.921, 813 595.648, 813 595 C 813 594.450, 812.888 594.101, 812.750 594.225 C 812.612 594.349, 800.350 594.698, 785.500 595 M 102.250 595.748 C 111.463 595.913, 126.537 595.913, 135.750 595.748 C 144.963 595.583, 137.425 595.448, 119 595.448 C 100.575 595.448, 93.037 595.583, 102.250 595.748 M 481.521 735.024 C 470.077 761.436, 460.933 783.266, 461.201 783.535 C 461.469 783.803, 480.399 783.905, 503.268 783.761 L 544.847 783.500 524.183 735.250 C 512.818 708.712, 503.251 687, 502.923 687 C 502.596 687, 492.965 708.611, 481.521 735.024 M 774.500 736.565 C 750.851 741.769, 731.341 760.601, 725.358 784 C 723.152 792.627, 723.156 809.394, 725.365 818 C 731.013 840.001, 748.545 857.489, 771.080 863.597 C 780.149 866.056, 799.414 866.074, 807.500 863.633 C 817.353 860.657, 826.733 855.113, 834.689 847.560 L 842.126 840.500 832.192 830.647 L 822.258 820.795 817.580 825.473 C 814.978 828.075, 809.927 831.560, 806.201 833.326 C 800.063 836.233, 798.659 836.500, 789.500 836.500 C 781.143 836.500, 778.748 836.130, 774.924 834.245 C 767.488 830.581, 762.372 825.502, 758.792 818.229 C 755.673 811.893, 755.500 810.963, 755.500 800.521 C 755.500 790.474, 755.748 788.996, 758.300 783.797 C 764.307 771.565, 776.120 764.647, 791 764.647 C 802.487 764.647, 809.044 767.239, 817.450 775.102 L 823.766 781.010 832.633 770.926 C 837.510 765.380, 841.635 760.258, 841.799 759.545 C 842.186 757.872, 832.091 748.842, 824.990 744.509 C 811.562 736.315, 790.613 733.019, 774.500 736.565 M 902.500 736.482 C 879.386 741.579, 861.297 757.427, 853.968 779 C 850.848 788.184, 850.138 805.028, 852.436 815.357 C 857.625 838.678, 876.234 857.569, 900 863.640 C 908.602 865.837, 925.315 865.837, 934.376 863.639 C 954.988 858.638, 973.109 842.127, 980.073 822 C 983.153 813.100, 983.948 793.307, 981.601 783.960 C 977.114 766.088, 964.118 749.959, 947.944 742.189 C 933.936 735.459, 916.862 733.315, 902.500 736.482 M 1177.362 736.424 C 1164.786 739.302, 1153.632 746.921, 1149.158 755.691 C 1144.743 764.344, 1144.160 777.435, 1147.699 788.442 C 1151.116 799.067, 1163.474 807.195, 1185 812.971 C 1199.111 816.758, 1203.853 818.558, 1206.698 821.206 C 1211.061 825.266, 1210.504 832.313, 1205.565 835.549 C 1196.168 841.707, 1180.422 838.089, 1164.697 826.161 C 1160.955 823.322, 1157.753 821, 1157.581 821 C 1156.902 821, 1140 842.016, 1140 842.860 C 1140 844.599, 1153.469 854.135, 1161.443 858.042 C 1173.346 863.874, 1180.386 865.433, 1194.500 865.361 C 1203.758 865.314, 1207.928 864.833, 1212.748 863.255 C 1224.814 859.307, 1233.067 852.348, 1237.899 842.046 C 1240.158 837.228, 1240.500 835.184, 1240.500 826.478 C 1240.500 817.146, 1240.271 815.991, 1237.176 809.704 C 1234.660 804.595, 1232.592 802.013, 1228.676 799.089 C 1221.010 793.367, 1216.535 791.410, 1200.827 786.916 C 1179.877 780.921, 1177 779.172, 1177 772.434 C 1177 768.923, 1177.531 767.731, 1180.029 765.629 C 1184.079 762.221, 1189.067 761.436, 1197.495 762.879 C 1205.184 764.197, 1212.596 767.250, 1219.300 771.862 L 1223.663 774.864 1231.439 763.703 L 1239.215 752.543 1235.857 749.705 C 1231.446 745.976, 1218.048 739.548, 1210.500 737.540 C 1201.940 735.262, 1184.942 734.690, 1177.362 736.424 M 1673.500 736.565 C 1649.851 741.769, 1630.341 760.601, 1624.358 784 C 1622.152 792.627, 1622.156 809.394, 1624.365 818 C 1630.013 840.001, 1647.545 857.489, 1670.080 863.597 C 1679.149 866.056, 1698.414 866.074, 1706.500 863.633 C 1716.353 860.657, 1725.733 855.113, 1733.689 847.560 L 1741.126 840.500 1731.192 830.647 L 1721.258 820.795 1716.580 825.473 C 1713.978 828.075, 1708.927 831.560, 1705.201 833.326 C 1699.063 836.233, 1697.659 836.500, 1688.500 836.500 C 1680.143 836.500, 1677.748 836.130, 1673.924 834.245 C 1666.488 830.581, 1661.372 825.502, 1657.792 818.229 C 1654.673 811.893, 1654.500 810.963, 1654.500 800.521 C 1654.500 790.474, 1654.748 788.996, 1657.300 783.797 C 1663.307 771.565, 1675.120 764.647, 1690 764.647 C 1701.487 764.647, 1708.044 767.239, 1716.450 775.102 L 1722.766 781.010 1731.633 770.926 C 1736.510 765.380, 1740.635 760.258, 1740.799 759.545 C 1741.186 757.872, 1731.091 748.842, 1723.990 744.509 C 1710.562 736.315, 1689.613 733.019, 1673.500 736.565 M 1969.500 736.482 C 1946.386 741.579, 1928.297 757.427, 1920.968 779 C 1917.848 788.184, 1917.138 805.028, 1919.436 815.357 C 1924.625 838.678, 1943.234 857.569, 1967 863.640 C 1975.602 865.837, 1992.315 865.837, 2001.376 863.639 C 2021.988 858.638, 2040.109 842.127, 2047.073 822 C 2050.153 813.100, 2050.948 793.307, 2048.601 783.960 C 2044.114 766.088, 2031.118 749.959, 2014.944 742.189 C 2000.936 735.459, 1983.862 733.315, 1969.500 736.482 M 1004 801 L 1004 864 1018.988 864 L 1033.976 864 1034.238 827 L 1034.500 790 1062.500 826.957 L 1090.500 863.914 1105.750 863.957 L 1121 864 1121 801 L 1121 738 1105.512 738 L 1090.024 738 1089.762 775.800 L 1089.500 813.600 1060.702 775.800 L 1031.904 738 1017.952 738 L 1004 738 1004 801 M 1251 751.500 L 1251 765 1268.500 765 L 1286 765 1286 814.500 L 1286 864 1301 864 L 1316 864 1316 814.500 L 1316 765 1333.500 765 L 1351 765 1351 751.500 L 1351 738 1301 738 L 1251 738 1251 751.500 M 1368 801 L 1368 864 1383 864 L 1398 864 1398 844.500 L 1398 825 1406.750 825.043 L 1415.500 825.086 1428.916 844.543 L 1442.333 864 1460.666 864 C 1470.750 864, 1478.983 863.663, 1478.962 863.250 C 1478.942 862.837, 1472.031 852.827, 1463.605 841.004 L 1448.286 819.507 1452.940 816.849 C 1464.766 810.095, 1471.023 797.387, 1470.985 780.201 C 1470.944 761.378, 1463.242 748.266, 1449.079 742.904 C 1438.388 738.856, 1430.201 738.072, 1398.250 738.035 L 1368 738 1368 801 M 1495.261 780.250 C 1495.690 826.007, 1495.788 826.914, 1501.603 838.799 C 1505.318 846.393, 1514.910 855.735, 1523 859.637 C 1531.775 863.869, 1538.775 865.389, 1549.500 865.389 C 1560.228 865.389, 1567.231 863.868, 1575.991 859.636 C 1584.197 855.672, 1593.719 846.430, 1597.387 838.869 C 1603.220 826.844, 1603.310 826.013, 1603.739 780.250 L 1604.136 738 1588.600 738 L 1573.064 738 1572.782 778.823 L 1572.500 819.646 1569.487 825.534 C 1567.474 829.470, 1565.041 832.430, 1562.151 834.461 C 1558.174 837.257, 1557.161 837.500, 1549.500 837.500 C 1541.854 837.500, 1540.826 837.254, 1536.940 834.500 C 1531.282 830.490, 1527.305 823.176, 1526.047 814.468 C 1525.493 810.636, 1525.031 791.862, 1525.020 772.750 L 1525 738 1509.932 738 L 1494.864 738 1495.261 780.250 M 1750 751.500 L 1750 765 1767.500 765 L 1785 765 1785 814.500 L 1785 864 1800 864 L 1815 864 1815 814.500 L 1815 765 1832.500 765 L 1850 765 1850 751.500 L 1850 738 1800 738 L 1750 738 1750 751.500 M 1867 801 L 1867 864 1882 864 L 1897 864 1897 801 L 1897 738 1882 738 L 1867 738 1867 801 M 2072 801 L 2072 864 2086.988 864 L 2101.976 864 2102.238 827 L 2102.500 790 2130.500 826.957 L 2158.500 863.914 2173.750 863.957 L 2189 864 2189 801 L 2189 738 2173.512 738 L 2158.024 738 2157.762 775.800 L 2157.500 813.600 2128.702 775.800 L 2099.904 738 2085.952 738 L 2072 738 2072 801 M 2203 759 L 2203 780 2217 780 L 2231 780 2231 775 L 2231 770 2222.500 770 L 2214 770 2214 754 L 2214 738 2208.500 738 L 2203 738 2203 759 M 2227 743 L 2227 748 2232.500 748 L 2238 748 2238 764 L 2238 780 2244 780 L 2250 780 2250 764 L 2250 748 2255.500 748 L 2261 748 2261 743 L 2261 738 2244 738 L 2227 738 2227 743 M 2266 759 L 2266 780 2277.386 780 C 2287.878 780, 2289.187 779.783, 2294.063 777.236 C 2301.062 773.580, 2304 768.308, 2304 759.408 C 2304 752.043, 2302.868 748.565, 2299.186 744.624 C 2294.327 739.421, 2289.759 738.046, 2277.250 738.022 L 2266 738 2266 759 M 2277 759.139 L 2277 770.279 2282.204 769.662 C 2289.517 768.796, 2292.525 765.672, 2292.428 759.043 C 2292.389 756.344, 2291.714 753.360, 2290.928 752.413 C 2289.029 750.123, 2283.787 748, 2280.032 748 L 2277 748 2277 759.139 M 907.324 763.380 C 901.380 765.323, 896.872 768.330, 892.032 773.581 C 877.651 789.182, 878.972 816.232, 894.791 830.121 C 901.296 835.833, 908.437 838.446, 917.500 838.430 C 927.400 838.412, 932.791 836.203, 940.331 829.072 C 946.717 823.031, 950.670 815.413, 951.872 806.827 C 954.330 789.270, 946.382 772.822, 931.856 765.407 C 925.423 762.123, 914.047 761.183, 907.324 763.380 M 1974.324 763.380 C 1968.380 765.323, 1963.872 768.330, 1959.032 773.581 C 1944.651 789.182, 1945.972 816.232, 1961.791 830.121 C 1968.296 835.833, 1975.437 838.446, 1984.500 838.430 C 1994.400 838.412, 1999.791 836.203, 2007.331 829.072 C 2013.717 823.031, 2017.670 815.413, 2018.872 806.827 C 2021.330 789.270, 2013.382 772.822, 1998.856 765.407 C 1992.423 762.123, 1981.047 761.183, 1974.324 763.380 M 1398 780.952 L 1398 798.176 1413.750 797.827 C 1432.430 797.414, 1434.999 796.516, 1438.198 789.286 C 1440.777 783.454, 1440.366 774.314, 1437.340 770.237 C 1434.265 766.093, 1429.087 764.832, 1412.750 764.252 L 1398 763.728 1398 780.952 M 2309.250 769.524 C 2307.665 770.643, 2307 772.124, 2307 774.534 C 2307 781.462, 2315.431 783.049, 2318.949 776.783 C 2320.341 774.301, 2320.297 773.874, 2318.381 771.296 C 2315.929 767.997, 2312.384 767.309, 2309.250 769.524" stroke="none" fill="#151438" fill-rule="evenodd"/></svg>